<?xml version="1.0" encoding="UTF-8"?>
<svg xmlns="http://www.w3.org/2000/svg" width="184" height="38" viewBox="0 0 184 38" fill="none">
  <path d="M144.347 18.5066C144.347 19.5312 144.463 20.5557 144.696 21.5802C144.929 22.6047 145.279 23.5723 145.803 24.4261C146.268 25.3368 146.909 26.1336 147.666 26.8167C148.423 27.4997 149.296 28.0689 150.344 28.4673C151.393 28.8657 152.557 29.0934 153.838 29.0934C155.119 29.0934 156.342 28.8657 157.332 28.4673C158.38 28.0689 159.253 27.5566 160.01 26.8167C160.767 26.1336 161.408 25.3368 161.873 24.4261C162.398 23.5154 162.747 22.5478 162.98 21.5802C163.213 20.5557 163.329 19.5312 163.329 18.5066C163.329 17.4821 163.213 16.4576 162.98 15.4331C162.747 14.4085 162.339 13.4409 161.873 12.5871C161.408 11.6765 160.767 10.8796 160.01 10.1966C159.253 9.51357 158.38 8.94439 157.332 8.54597C156.284 8.14754 155.119 7.97679 153.838 7.91987C152.557 7.91987 151.334 8.14754 150.344 8.54597C149.296 8.94439 148.423 9.45666 147.666 10.1966C146.909 10.8796 146.268 11.6765 145.803 12.5871C145.279 13.4978 144.929 14.4654 144.696 15.4331C144.463 16.4576 144.347 17.4821 144.347 18.5066ZM147.899 18.5066C147.899 17.9374 147.957 17.3683 148.015 16.6852C148.132 16.0022 148.306 15.3192 148.539 14.6362C148.772 13.9532 149.122 13.3271 149.587 12.7579C150.053 12.1887 150.636 11.7334 151.334 11.3919C152.033 11.0504 152.848 10.8796 153.838 10.8796C154.828 10.8796 155.643 11.0504 156.342 11.3919C157.041 11.7334 157.623 12.1887 158.089 12.7579C158.555 13.3271 158.904 13.9532 159.137 14.6362C159.37 15.3192 159.544 16.0022 159.661 16.6852C159.777 17.3683 159.836 17.9374 159.777 18.5066C159.777 19.0758 159.719 19.645 159.661 20.328C159.544 21.011 159.37 21.694 159.137 22.3771C158.904 23.0601 158.555 23.6862 158.089 24.2553C157.623 24.8245 157.041 25.2799 156.342 25.6214C155.643 25.9629 154.828 26.1336 153.838 26.1336C152.848 26.1336 152.033 25.9629 151.334 25.6214C150.636 25.2799 150.053 24.8245 149.587 24.2553C149.122 23.6862 148.772 23.0601 148.539 22.3771C148.306 21.694 148.132 21.011 148.015 20.328C147.957 19.645 147.899 19.0758 147.899 18.5066ZM140.329 8.54597H136.894V28.5811H140.329V8.54597ZM131.712 14.9208C131.712 13.7824 131.537 12.8148 131.246 12.018C130.955 11.2211 130.547 10.5381 130.081 10.0258C129.557 9.51357 129.033 9.11515 128.393 8.77364C127.752 8.48905 127.112 8.26138 126.471 8.14754C125.831 8.0337 125.132 7.97679 124.491 7.97679C123.618 7.97679 122.803 8.09062 122.162 8.37521C121.463 8.60289 120.881 8.94439 120.357 9.2859C119.833 9.62741 119.426 10.0258 119.076 10.4243C118.727 10.8227 118.494 11.1073 118.319 11.3919H118.261V8.54597H115V28.5811H118.436V17.6529C118.436 16.5714 118.552 15.6607 118.785 14.8639C119.018 14.067 119.367 13.4409 119.775 12.9287C120.182 12.4164 120.59 12.018 121.114 11.7334C121.58 11.4488 122.104 11.2211 122.57 11.1073C123.036 10.9934 123.501 10.9365 123.909 10.9365C125.015 10.9365 125.889 11.1073 126.529 11.5057C127.17 11.9041 127.636 12.4733 127.869 13.2702C128.16 14.067 128.276 15.0346 128.276 16.173V28.4673H131.712V14.9208ZM109.818 28.5242V8.54597H106.383V19.5881C106.383 20.1572 106.324 20.7833 106.208 21.4094C106.091 22.0355 105.917 22.6047 105.626 23.1739C105.334 23.7431 105.043 24.2553 104.577 24.7107C104.112 25.166 103.588 25.5075 102.947 25.7921C102.307 26.0767 101.55 26.1906 100.676 26.1906C99.9192 26.1906 99.2787 26.0767 98.6382 25.7921C98.056 25.5075 97.5901 25.0522 97.2408 24.4261C96.8914 23.8 96.7167 22.8893 96.7167 21.8079V8.54597H96.0762C95.2028 9.68433 94.2129 10.7658 93.2813 11.8472V22.9462C93.2813 23.9138 93.3977 24.7107 93.6889 25.4506C93.9218 26.1336 94.3294 26.7597 94.737 27.2151C95.2028 27.6704 95.7269 28.0689 96.2509 28.3534C96.8332 28.638 97.4155 28.8657 98.056 28.9795C98.6965 29.0934 99.2787 29.1503 99.9192 29.1503C101.026 29.1503 101.957 29.0365 102.772 28.7519C103.588 28.4673 104.286 28.0689 104.869 27.5566C105.451 27.0443 105.975 26.3613 106.499 25.6214L106.557 25.6783V28.5811H109.818V28.5242ZM89.5547 28.5242H80.413L76.5117 23.0601L81.8104 17.8236C86.0028 13.5548 91.5345 7.46452 91.3598 4.44787C91.3598 4.44787 91.7091 1.31738 83.5573 7.12302C83.5573 7.12302 86.0028 4.84629 89.0307 2.85416C90.1952 2.05731 91.5345 1.37429 92.7572 0.805113C97.1243 -1.01626 99.3952 0.235933 96.4838 4.73246C95.0864 6.89534 92.8737 9.57049 90.4281 12.2456C87.9826 14.9208 85.4206 17.4821 83.0914 19.7019L89.5547 28.5242ZM184 14.9208C184 13.7824 183.825 12.8148 183.534 12.018C183.243 11.2211 182.835 10.5381 182.37 10.0258C181.846 9.51357 181.322 9.11515 180.681 8.77364C180.041 8.48905 179.4 8.26138 178.76 8.14754C178.119 8.0337 177.42 7.97679 176.78 7.97679C175.906 7.97679 175.091 8.09062 174.451 8.37521C173.752 8.60289 173.17 8.94439 172.646 9.2859C172.122 9.62741 171.714 10.0258 171.365 10.4243C171.015 10.8227 170.782 11.1073 170.608 11.3919H170.549V8.54597H167.289V28.5811H170.724V17.6529C170.724 16.5714 170.841 15.6607 171.073 14.8639C171.306 14.067 171.656 13.4409 172.063 12.9287C172.471 12.4164 172.879 12.018 173.403 11.7334C173.868 11.4488 174.392 11.2211 174.858 11.1073C175.324 10.9934 175.79 10.9365 176.198 10.9365C177.304 10.9365 178.177 11.1073 178.818 11.5057C179.458 11.9041 179.924 12.4733 180.157 13.2702C180.448 14.067 180.565 15.0346 180.565 16.173V28.4673H184V14.9208Z" fill="url(#paint0_linear_964_135)"></path>
  <path d="M23.9316 28.5239V28.1254C23.5822 27.8408 23.3493 27.6132 23.1746 27.3286C22.9999 27.1009 22.9417 26.8163 22.8835 26.5317C22.8253 26.2471 22.8252 25.9056 22.8252 25.5641V16.2296C22.8252 15.4327 22.8253 14.6928 22.7088 13.9528C22.6506 13.2129 22.5341 12.5868 22.3012 11.9607C22.0683 11.3346 21.7772 10.7654 21.3113 10.3101C20.8455 9.79783 20.2632 9.3994 19.5063 9.05789C18.7493 8.71638 17.8177 8.43179 16.6531 8.26104C15.4886 8.09029 14.1493 7.97645 12.519 7.97645C10.481 7.97645 8.79238 8.1472 7.33669 8.43179C5.93922 8.71638 4.77467 9.17173 3.84303 9.74091C2.96961 10.3101 2.32911 11.05 1.92151 11.8469C1.51392 12.7006 1.28101 13.6113 1.28101 14.6928H9.14175C9.19997 14.1236 9.43289 13.7252 9.72402 13.4406C10.0152 13.156 10.4228 12.9852 10.8303 12.8714C11.2379 12.7576 11.6455 12.7576 12.0531 12.7576C12.286 12.7576 12.519 12.7576 12.8101 12.8145C13.1012 12.8714 13.3924 12.9283 13.6835 13.0422C13.9746 13.156 14.2076 13.3267 14.3822 13.5544C14.5569 13.7821 14.6734 14.0667 14.6734 14.4082C14.6734 14.8635 14.4405 15.205 14.0329 15.4896C13.6253 15.7173 13.043 15.945 12.3443 16.0588C11.6455 16.1726 10.8886 16.2865 10.0152 16.4003C9.14175 16.5142 8.26833 16.628 7.33669 16.7418C6.40505 16.8557 5.53163 17.0833 4.65821 17.3679C3.7848 17.6525 3.02784 17.994 2.32911 18.4494C1.63038 18.9047 1.10633 19.5308 0.640505 20.2707C0.232911 21.0107 0 21.9783 0 23.1166C0 24.1412 0.232911 25.0519 0.582277 25.7918C0.989871 26.5317 1.51392 27.1578 2.21265 27.6701C2.91138 28.1824 3.66834 28.5239 4.54176 28.7515C5.41517 28.9792 6.34682 29.093 7.33669 29.093C8.32656 29.093 9.31643 29.0361 10.1898 28.8654C11.0633 28.6946 11.9367 28.41 12.6936 28.0116C13.5088 27.6132 14.2658 27.044 15.0227 26.361L15.4303 28.5239H23.9316ZM11.0633 24.5965C10.2481 24.5965 9.60757 24.4258 9.14175 24.1412C8.67593 23.8566 8.44301 23.4012 8.44301 22.9459C8.44301 22.4336 8.55947 22.0352 8.85061 21.7506C9.08352 21.466 9.43288 21.2384 9.89871 21.0676C10.3063 20.8968 10.8303 20.783 11.3544 20.6692C11.8784 20.5553 12.4607 20.4415 13.043 20.3277C13.6253 20.2138 14.1493 19.9862 14.7316 19.7585C14.7898 20.6692 14.7316 21.5229 14.4987 22.2629C14.2658 23.0028 13.9164 23.572 13.3341 24.0273C12.7519 24.3688 12.0531 24.5965 11.0633 24.5965ZM28.124 8.48871V26.6456C28.124 27.3286 28.0657 27.8978 28.0075 28.2393C27.9493 28.6377 27.7746 28.9223 27.4835 29.15C27.2506 29.3207 26.843 29.4346 26.3771 29.4915C25.9113 29.5484 25.2126 29.5484 24.4556 29.5484V35.1833C25.1544 35.2402 25.8531 35.2402 26.4354 35.2402C27.0176 35.2402 27.5999 35.2971 28.1822 35.2971C29.6961 35.2971 30.9771 35.1264 31.967 34.8418C32.9569 34.5572 33.7721 34.1587 34.3543 33.6465C34.9366 33.1342 35.4024 32.5081 35.6353 31.7682C35.9265 31.0283 36.1012 30.2314 36.2176 29.3776C36.2758 28.5239 36.3341 27.5563 36.3341 26.5317V8.48871H28.124ZM36.2758 6.78117V0.235596H28.124L36.2758 6.78117ZM62.0707 25.5072V16.2296C62.0707 15.4327 62.0707 14.6928 61.9543 13.9528C61.896 13.2129 61.7796 12.5868 61.5467 11.9607C61.3137 11.3346 61.0226 10.7654 60.5568 10.3101C60.091 9.79783 59.5087 9.3994 58.7517 9.05789C57.9948 8.71638 57.0631 8.43179 55.8986 8.26104C54.734 8.09029 53.3948 7.97645 51.7644 7.97645C49.7264 7.97645 48.0378 8.1472 46.5821 8.43179C45.1847 8.71638 44.0201 9.17173 43.0885 9.74091C42.2151 10.3101 41.5746 11.05 41.167 11.8469C40.7594 12.7006 40.5265 13.6113 40.5265 14.6928H48.3872C48.4454 14.1236 48.6783 13.7252 48.9695 13.4406C49.2606 13.156 49.6682 12.9852 50.0758 12.8714C50.4834 12.7576 50.891 12.7576 51.2986 12.7576C51.5315 12.7576 51.7644 12.7576 52.0555 12.8145C52.3467 12.8714 52.6378 12.9283 52.929 13.0422C53.2201 13.156 53.453 13.3267 53.6277 13.5544C53.8024 13.7821 53.9188 14.0667 53.9188 14.4082C53.9188 14.8635 53.6859 15.205 53.2783 15.4896C52.8707 15.7173 52.2885 15.945 51.5897 16.0588C50.891 16.1726 50.134 16.2865 49.2606 16.4003C48.3872 16.5142 47.5138 16.628 46.5821 16.7418C45.6505 16.8557 44.7771 17.0833 43.9037 17.3679C43.0303 17.6525 42.2733 17.994 41.5746 18.4494C40.8758 18.9047 40.3518 19.5308 39.886 20.2707C39.4784 21.0107 39.2455 21.9783 39.2455 23.1166C39.2455 24.1412 39.4784 25.0519 39.8277 25.7918C40.2353 26.5317 40.7594 27.1578 41.4581 27.6701C42.1568 28.1824 42.9138 28.5239 43.7872 28.7515C44.6606 28.9792 45.5923 29.093 46.5821 29.093C47.572 29.093 48.5619 29.0361 49.4353 28.8654C50.3087 28.6946 51.1821 28.41 51.9391 28.0116C52.7543 27.6132 53.5112 27.044 54.2682 26.361L54.6758 28.5239H59.4505C60.3239 27.4993 61.1973 26.4748 62.0707 25.5072ZM73.8327 19.1324C69.6403 23.4012 64.1087 29.4915 64.2251 32.565C64.2251 32.565 63.8758 35.6955 72.0276 29.8899C72.0276 29.8899 69.5821 32.1666 66.5542 34.1587C65.3897 34.9556 64.0505 35.6386 62.8277 36.2078C58.4606 38.0292 56.1897 36.777 59.1011 32.2805C60.4986 30.1176 62.7112 27.4424 65.1568 24.7673C67.5441 22.0921 70.1644 19.5308 72.4352 17.311L66.1466 8.48871H75.1719L79.0732 13.9528C77.3264 15.7173 75.5795 17.4248 73.8327 19.1324ZM50.3087 24.5965C49.4935 24.5965 48.853 24.4258 48.3872 24.1412C47.9214 23.8566 47.6885 23.4012 47.6885 22.9459C47.6885 22.4336 47.8049 22.0352 48.0961 21.7506C48.329 21.466 48.6783 21.2384 49.1442 21.0676C49.5518 20.8968 50.0758 20.783 50.5999 20.6692C51.1239 20.5553 51.7062 20.4415 52.2885 20.3277C52.8707 20.2138 53.3948 19.9862 53.9771 19.7585C54.0353 20.6692 53.9771 21.5229 53.7441 22.2629C53.5112 23.0028 53.1619 23.572 52.5796 24.0273C51.9973 24.3688 51.2404 24.5965 50.3087 24.5965Z" fill="url(#paint1_linear_964_135)"></path>
  <defs>
    <linearGradient id="paint0_linear_964_135" x1="130.256" y1="0" x2="130.256" y2="29.1503" gradientUnits="userSpaceOnUse">
      <stop stop-color="#EA4647"></stop>
      <stop offset="1" stop-color="#960001"></stop>
    </linearGradient>
    <linearGradient id="paint1_linear_964_135" x1="39.5366" y1="0.235596" x2="39.5366" y2="37.0129" gradientUnits="userSpaceOnUse">
      <stop stop-color="#EA4647"></stop>
      <stop offset="1" stop-color="#960001"></stop>
    </linearGradient>
  </defs>
</svg>
