<svg width="194" height="25" viewBox="0 0 194 25" fill="none" xmlns="http://www.w3.org/2000/svg">
<g id="Group 8982">
<path id="Vector" d="M0.364258 22.3491C2.55551 15.8016 4.73959 9.27236 6.93801 2.69902C7.22851 2.72477 7.59431 2.7873 7.96012 2.7873C8.31517 2.7873 8.66663 2.72477 9.01809 2.68799C10.302 7.25291 11.5823 11.8068 12.8949 16.4821C13.085 16.265 13.1818 16.1804 13.25 16.0774C16.1477 11.7259 19.0491 7.37429 21.9361 3.01536C22.1046 2.76155 22.2409 2.68431 22.5458 2.70638C23.1662 2.7542 23.7902 2.72109 24.4322 2.72109C23.9659 9.265 23.5033 15.7868 23.0407 22.316H18.7191C19.171 17.9387 19.6229 13.543 20.0784 9.14729L19.9098 9.09212C19.8273 9.19511 19.7377 9.29443 19.6659 9.40479C17.0766 13.3517 14.4908 17.3024 11.9051 21.2493C11.7867 21.4332 11.654 21.6098 11.5608 21.8047C11.3564 22.2278 11.0802 22.397 10.5853 22.3786C10.198 22.3639 10.1119 22.2241 10.0259 21.9077C8.91409 17.8872 7.79156 13.8704 6.66904 9.85355C6.626 9.69538 6.55786 9.54088 6.50407 9.38271C6.4682 9.38271 6.42876 9.38271 6.39289 9.38271C6.32834 9.55192 6.24944 9.71377 6.20282 9.88666C5.11257 13.852 4.02591 17.8173 2.94283 21.7827C2.78145 22.3786 2.79579 22.3528 2.16819 22.3013C1.70196 22.2645 1.22857 22.3124 0.755169 22.3234C0.615302 22.3234 0.479021 22.3381 0.378603 22.3455L0.364258 22.3491Z" fill="#2F4399"/>
<path id="Vector_2" d="M142.005 22.3605C142.598 19.6304 143.199 16.9077 143.77 14.1814C143.884 13.6295 143.939 13.0408 143.899 12.4815C143.774 10.8111 142.223 10.09 140.801 11.0135C140.075 11.4845 139.625 12.1835 139.412 12.993C139.124 14.0673 138.885 15.1601 138.693 16.2602C138.354 18.2102 138.063 20.1676 137.75 22.125C137.735 22.2096 137.702 22.2906 137.691 22.3421H133.473C133.51 22.1875 133.55 22.022 133.587 21.8527C134.188 19.0417 134.803 16.2308 135.366 13.4124C135.473 12.8679 135.436 12.2681 135.333 11.7163C135.186 10.9326 134.549 10.5757 133.753 10.6492C132.478 10.767 131.775 11.5801 131.262 12.6287C130.632 13.9165 130.452 15.3256 130.209 16.7091C129.896 18.4714 129.649 20.2412 129.369 22.0109C129.35 22.1397 129.317 22.2648 129.303 22.3421H125.081C126.234 17.8129 127.144 13.2284 127.744 8.62563H131.822C131.668 9.26583 131.506 9.92443 131.347 10.5793C131.377 10.5977 131.406 10.6125 131.439 10.6309C131.668 10.4101 131.889 10.1857 132.121 9.97226C133.292 8.89054 134.619 8.1694 136.262 8.16572C137.772 8.16572 138.8 8.9163 139.261 10.3512C139.308 10.4984 139.36 10.6456 139.423 10.8369C139.806 10.4726 140.137 10.1231 140.502 9.81405C141.902 8.62195 143.475 7.92656 145.369 8.22827C147.097 8.50421 148.124 9.6264 148.051 11.3814C147.999 12.603 147.749 13.8208 147.531 15.0276C147.111 17.3529 146.647 19.6672 146.223 21.9889C146.165 22.3163 146.087 22.3899 145.726 22.3789C144.47 22.3347 143.21 22.3605 142.016 22.3605H142.005Z" fill="#ED1E24"/>
<path id="Vector_3" d="M67.982 8.59866C67.8271 9.30708 67.6898 9.94539 67.5489 10.58L67.6581 10.6612C67.8588 10.4583 68.063 10.2516 68.2636 10.0487C69.1086 9.1927 70.0733 8.55069 71.2352 8.29242C72.4323 8.02307 73.58 8.08949 74.4497 9.13736C74.7349 9.4805 74.8968 9.9417 75.1045 10.3549C75.1714 10.4915 75.1961 10.6538 75.263 10.8863C75.6538 10.5025 75.9812 10.1483 76.3368 9.83101C77.467 8.81635 78.7345 8.13376 80.266 8.17435C80.6427 8.18542 81.023 8.23707 81.3856 8.34038C82.6672 8.69828 83.3678 9.60963 83.484 10.9933C83.5896 12.2773 83.308 13.5059 83.0721 14.7457C82.6073 17.2104 82.1708 19.6788 81.7236 22.1472C81.7131 22.2025 81.699 22.2615 81.6849 22.3243H77.7275C77.9458 21.4277 78.1958 20.5274 78.3859 19.6124C78.8049 17.5867 79.2168 15.5611 79.5795 13.5244C79.6675 13.0337 79.6217 12.4913 79.5372 11.9932C79.3717 11.0523 78.7028 10.5616 77.7627 10.6022C76.7065 10.6501 76.0376 11.2921 75.5587 12.2109C75.0376 13.2144 74.9003 14.3324 74.7173 15.4319C74.3546 17.631 74.0307 19.8411 73.6716 22.0402C73.6505 22.1656 73.485 22.3648 73.3829 22.3648C72.1788 22.3833 70.9747 22.3722 69.767 22.3648C69.7424 22.3648 69.7177 22.339 69.6544 22.3095C69.8022 21.6823 69.9712 21.0476 70.098 20.4019C70.5662 18.0405 71.038 15.6828 71.464 13.3141C71.5556 12.8086 71.5028 12.2551 71.4218 11.7386C71.3127 11.0228 70.8549 10.6464 70.1578 10.6095C69.1685 10.5542 68.4326 11.0302 67.8764 11.853C67.1722 12.8898 66.9011 14.0963 66.6969 15.3176C66.3307 17.5314 65.9963 19.7526 65.6547 21.9701C65.609 22.2578 65.5315 22.387 65.2041 22.3796C64.1267 22.3501 63.0458 22.3722 61.9685 22.3722C61.8734 22.3722 61.7783 22.3722 61.627 22.3722C61.6551 22.2099 61.6657 22.0844 61.6938 21.9664C62.7149 17.8044 63.4895 13.5908 64.0633 9.3366C64.169 8.56176 64.1584 8.5839 64.8379 8.60235C65.7181 8.62449 66.6018 8.60235 67.4855 8.60235C67.6229 8.60235 67.7602 8.60235 67.9714 8.60235L67.982 8.59866Z" fill="#2F4399"/>
<path id="Vector_4" d="M86.7903 5.05647C86.9476 4.26084 87.1087 3.46152 87.2661 2.68799H102.106C101.956 3.45047 101.799 4.23874 101.634 5.07121C100.866 5.0049 100.057 4.92755 99.2438 4.86861C98.4983 4.81336 97.7527 4.79494 97.0109 4.73601C96.6512 4.70654 96.5201 4.8502 96.4527 5.18539C95.9656 7.65333 95.4448 10.1102 94.9728 12.5782C94.3508 15.838 93.7626 19.1053 93.1594 22.3799H88.6336C89.825 16.5674 91.0276 10.7033 92.264 4.68444C90.3195 4.81704 88.5437 4.93492 86.7978 5.05279L86.7903 5.05647Z" fill="#ED1E24"/>
<path id="Vector_5" d="M44.1228 22.3799C43.3656 22.3463 42.6469 22.294 41.932 22.2903C41.2286 22.2903 40.529 22.3426 39.7488 22.3762C41.5092 15.1053 42.9813 7.81945 44.1267 0.5H48.5007C46.7442 7.72235 45.2798 14.997 44.1228 22.3799Z" fill="#2F4399"/>
<path id="Subtract" fill-rule="evenodd" clip-rule="evenodd" d="M114.049 11.3407C114.052 11.4216 114.056 11.5015 114.06 11.5803V11.5911C114.288 11.4682 114.51 11.3407 114.73 11.2143C115.212 10.9379 115.684 10.6665 116.184 10.4595C117.18 10.0464 118.226 9.88833 119.24 10.4415C119.946 10.8259 120.186 11.4761 120.15 12.252C120.114 13.0028 119.814 13.574 119.058 13.8255C118.949 13.8614 118.841 13.8989 118.734 13.9364C118.518 14.0115 118.302 14.0865 118.083 14.1488C117.688 14.2597 117.29 14.3615 116.892 14.4633C116.117 14.6616 115.341 14.86 114.588 15.1259C112.757 15.7725 111.568 17.0262 111.322 19.045C111.129 20.6436 111.968 21.8686 113.528 22.2278C115.135 22.5978 116.541 22.1667 117.79 21.1322C117.99 20.9657 118.182 20.7873 118.383 20.5992C118.473 20.5153 118.565 20.4294 118.661 20.3419C118.676 20.3842 118.69 20.4219 118.702 20.4564C118.731 20.5388 118.754 20.6029 118.772 20.6688C119.097 21.8183 119.804 22.4182 120.985 22.3248C121.512 22.2845 122.029 22.1298 122.546 21.9753C122.767 21.9091 122.987 21.843 123.209 21.7859C123.63 21.6782 123.759 21.3908 123.705 20.9885C122.449 20.8304 122.252 20.5646 122.431 19.3001C122.435 19.2531 122.446 19.2076 122.457 19.1616C122.463 19.1374 122.469 19.113 122.474 19.0881C122.605 18.4466 122.739 17.8059 122.874 17.1654C123.195 15.6328 123.516 14.1014 123.798 12.561C123.919 11.8856 123.941 11.1492 123.812 10.4775C123.537 9.04774 122.459 8.4155 121.142 8.17122C118.579 7.69704 116.302 8.46579 114.185 9.87037C114.103 9.92425 114.007 10.0428 114.007 10.1326C114.009 10.5428 114.03 10.9529 114.049 11.3407ZM119.778 14.8021C119.778 14.8021 119.778 14.8021 119.778 14.802V14.799C119.777 14.7999 119.777 14.8008 119.777 14.8017C119.756 14.7894 119.735 14.778 119.714 14.7666C119.693 14.755 119.671 14.7433 119.65 14.7307C119.65 14.7308 119.65 14.7309 119.649 14.7309C119.649 14.7309 119.649 14.7308 119.649 14.7307C119.47 14.7955 119.292 14.8631 119.113 14.9306C119.097 14.9366 119.081 14.9426 119.066 14.9486C118.77 15.0602 118.474 15.1714 118.175 15.2699C118.119 15.2882 118.063 15.3061 118.007 15.3235C116.254 15.8695 115.341 17.0765 115.255 18.8942C115.21 19.8301 115.609 20.4537 116.559 20.4384C116.663 20.4368 116.773 20.4275 116.891 20.4101C117.462 20.3275 117.944 20.0365 118.301 19.5839C118.504 19.3288 118.726 19.0486 118.808 18.7433C119.078 17.7309 119.322 16.712 119.565 15.6917C119.636 15.3952 119.706 15.0987 119.778 14.8021Z" fill="#ED1E24"/>
<path id="Subtract_2" fill-rule="evenodd" clip-rule="evenodd" d="M37.1895 21.7465C37.5357 21.6064 37.6999 21.4053 37.6357 20.9922L37.6321 20.9994C37.5477 20.9887 37.4682 20.9806 37.3915 20.9728C37.3386 20.9674 37.2869 20.9621 37.2359 20.9562C36.5719 20.87 36.3328 20.615 36.3542 19.9432C36.3649 19.5301 36.4077 19.1134 36.4863 18.7075C36.6407 17.9117 36.8007 17.1172 36.9606 16.3228C37.2663 14.8042 37.572 13.286 37.8392 11.76C38.0141 10.747 37.7392 9.78785 36.9432 9.06221C36.0865 8.28269 35.012 8.10308 33.9233 8.06716C31.8422 7.99531 29.9825 8.6994 28.2655 9.83456C28.1441 9.91359 28.0192 10.0968 28.0156 10.2333C28.005 10.5671 28.0259 10.9029 28.0477 11.251C28.0552 11.3711 28.0627 11.4928 28.0692 11.6163C28.104 11.6015 28.1323 11.5912 28.1554 11.5828C28.1938 11.5689 28.2178 11.5602 28.2334 11.5445C28.9366 10.8512 29.8076 10.4704 30.7392 10.2189C31.4674 10.0249 32.2028 9.97825 32.9274 10.2513C33.6877 10.5351 34.1446 11.2068 34.166 12.0402C34.1875 12.9706 33.8912 13.4771 33.0559 13.8292C32.7268 13.9699 32.381 14.0699 32.0341 14.1703C31.9558 14.1929 31.8776 14.2155 31.7994 14.2387C31.3996 14.3572 30.9962 14.4662 30.5929 14.5752C29.7861 14.7931 28.9794 15.011 28.2012 15.3056C26.6734 15.8804 25.6811 17.0155 25.3884 18.6644C25.0671 20.4569 25.7418 21.7825 27.5623 22.1992C28.8759 22.5009 30.1181 22.2495 31.2247 21.4735C31.5702 21.2309 31.8933 20.9551 32.2167 20.679C32.3577 20.5586 32.4988 20.4382 32.6418 20.3204C32.6449 20.3235 32.6507 20.326 32.6562 20.3283C32.6635 20.3314 32.6704 20.3343 32.6704 20.3384C32.6811 20.3718 32.6921 20.4054 32.7032 20.4392C32.7361 20.5399 32.7695 20.6421 32.7989 20.7443C33.0452 21.5669 33.5449 22.1094 34.4195 22.2638C35.4118 22.4363 36.2971 22.1058 37.1895 21.7465ZM33.7606 14.6418C33.7613 14.6415 33.762 14.6413 33.7627 14.641C33.7215 14.8446 33.6832 15.0398 33.646 15.2292C33.5637 15.6479 33.4871 16.038 33.3986 16.4264C33.3552 16.617 33.3144 16.8088 33.2735 17.0007C33.1566 17.5504 33.0395 18.1013 32.8596 18.6284C32.5776 19.4583 32.0314 20.0977 31.1569 20.3671C30.9241 20.4389 30.7046 20.472 30.5024 20.4698C29.6213 20.4614 29.069 19.7843 29.1881 18.729C29.3809 17.0335 30.2055 15.8516 31.8761 15.3307C32.2843 15.2026 32.6829 15.0502 33.1109 14.8864C33.319 14.8068 33.5342 14.7245 33.7608 14.641C33.7607 14.6413 33.7607 14.6415 33.7606 14.6418Z" fill="#2F4399"/>
<path id="Subtract_3" fill-rule="evenodd" clip-rule="evenodd" d="M49.8227 11.1399C49.8316 11.2674 49.8403 11.3907 49.8475 11.5084C50.0611 11.3942 50.2726 11.2746 50.4844 11.1549C50.9591 10.8866 51.4346 10.6178 51.9357 10.4091C52.878 10.0212 53.8704 9.88107 54.8449 10.3265C55.6373 10.6893 55.9515 11.3503 55.9229 12.2089C55.8944 13.089 55.5838 13.5488 54.7628 13.8685C54.4701 13.9835 54.1738 14.0804 53.8704 14.1631C53.5019 14.2631 53.1314 14.3561 52.761 14.449C52.0403 14.6299 51.3198 14.8107 50.6149 15.0432C48.8123 15.6395 47.5058 16.7495 47.1346 18.7396C46.849 20.2735 47.4737 21.5703 48.8265 22.0517C50.3258 22.587 51.7501 22.3427 53.0494 21.441C53.3786 21.2118 53.6838 20.9481 53.9888 20.6845C54.1236 20.568 54.2584 20.4516 54.3951 20.3382C54.4074 20.3518 54.4189 20.3629 54.4289 20.3726C54.448 20.3909 54.4618 20.4043 54.4665 20.4208C54.4922 20.4941 54.5141 20.5674 54.5359 20.6407C54.5505 20.6895 54.565 20.7384 54.5807 20.7872C54.8342 21.5883 55.3232 22.1128 56.1835 22.2636C57.1616 22.4361 58.0326 22.12 58.9142 21.7715C59.2855 21.6242 59.4854 21.4231 59.4104 21.0135C58.1432 20.8267 57.9076 20.4927 58.1646 19.1994C58.3509 18.2592 58.541 17.3201 58.7311 16.381C59.0291 14.9089 59.327 13.437 59.6103 11.961C59.8745 10.5672 59.2783 9.27039 58.1575 8.64892C57.4114 8.2394 56.594 8.09571 55.7694 8.06698C53.6277 7.98795 51.7144 8.70281 49.9581 9.88826C49.876 9.94573 49.7689 10.0571 49.7689 10.1397C49.7766 10.4827 49.8005 10.8239 49.8227 11.1399ZM55.4399 14.6749C55.4415 14.6743 55.443 14.6737 55.4446 14.6732L55.441 14.6804C55.4422 14.6873 55.4435 14.694 55.4449 14.7007C55.4456 14.7044 55.4464 14.7082 55.4472 14.7119C55.4517 14.7328 55.4565 14.7523 55.4611 14.7708C55.475 14.827 55.4863 14.8728 55.4767 14.9139C55.4089 15.2302 55.3437 15.5474 55.2784 15.8645C55.096 16.7501 54.9137 17.6359 54.6771 18.5061C54.4665 19.2857 53.9882 19.9466 53.21 20.252C52.8281 20.4029 52.3783 20.4567 51.9678 20.4316C51.4507 20.3959 51.0706 19.9984 50.9752 19.4041C50.9544 19.2783 50.9464 19.1437 50.9527 19.0019C51.0026 17.874 51.2775 16.7819 52.2413 16.0814C52.6694 15.7701 53.1724 15.5598 53.6725 15.3508C53.8186 15.2897 53.9645 15.2288 54.1082 15.1654C54.3953 15.0391 54.6922 14.9342 54.9978 14.8262C55.1443 14.7744 55.2928 14.7219 55.4432 14.6661L55.4396 14.6732C55.4397 14.6738 55.4398 14.6743 55.4399 14.6749Z" fill="#2F4399"/>
<path id="Subtract_4" fill-rule="evenodd" clip-rule="evenodd" d="M102.423 15.1834C102.199 16.2777 102.124 17.3111 102.367 18.3518C102.716 19.8497 103.862 20.6724 105.386 20.5574C106.536 20.4712 107.582 20.112 108.553 19.4941C108.632 19.4444 108.741 19.4411 108.85 19.4379C108.898 19.4364 108.947 19.435 108.992 19.4294C108.983 19.4725 108.976 19.5158 108.969 19.559C108.953 19.6564 108.937 19.7529 108.902 19.8426C108.381 21.2148 107.246 21.7644 105.933 22.0805C104.655 22.3895 103.377 22.447 102.081 22.1739C99.6536 21.6602 98.1508 19.9216 98.1258 17.425C98.0973 14.8349 98.7898 12.4604 100.528 10.4811C101.924 8.8933 103.727 8.12096 105.815 8.0527C106.45 8.03115 107.103 8.08504 107.721 8.21795C109.445 8.59514 110.484 9.76622 110.759 11.5228C110.941 12.6796 110.744 13.8039 110.512 14.9283C110.458 15.1902 110.299 15.1873 110.122 15.1841C110.103 15.1837 110.083 15.1834 110.063 15.1834H102.959H102.423ZM103.127 13.9261H102.649C103.009 12.4604 103.373 11.0559 104.387 9.9638C104.669 9.65486 105.097 9.43214 105.501 9.30281C105.633 9.25992 105.763 9.23918 105.888 9.23868C106.401 9.23488 106.831 9.57445 107.03 10.1218C107.348 10.9984 107.262 11.9036 107.173 12.7981C107.063 13.889 107.036 13.9249 106.026 13.926C105.987 13.9261 105.946 13.9261 105.904 13.9261H103.127Z" fill="#ED1E24"/>
<g id="Group 3">
<path id="Vector_6" d="M190.268 24.1741L169.659 17.8324L193.771 4.5141C191.862 6.22768 186.995 10.4913 185.308 14.9118C184.037 18.244 187.703 22.839 190.268 24.1741Z" fill="#2F4399"/>
<path id="Vector_7" d="M157.409 4.71343L178.018 11.0552L153.906 24.3735C155.815 22.6599 160.682 18.3962 162.369 13.9757C163.64 10.6435 159.974 6.04854 157.409 4.71343Z" fill="#ED1E24"/>
</g>
</g>
</svg>
